<svg width="26" height="26" viewBox="0 0 26 26" fill="none" xmlns="http://www.w3.org/2000/svg">
<g id="Property 1=Bold Duotone, Property 2=Map &#38; Location, Property 3=Map Point">
<path id="Vector" opacity="0.5" d="M13.0002 2.16666C8.21369 2.16666 4.3335 6.50278 4.3335 11.375C4.3335 16.209 7.09959 21.4634 11.4154 23.4806C12.4213 23.9509 13.579 23.9509 14.585 23.4806C18.9008 21.4634 21.6668 16.209 21.6668 11.375C21.6668 6.50278 17.7867 2.16666 13.0002 2.16666Z" fill="#9CA3AF"/>
<path id="Vector_2" d="M12.9998 13.5417C14.4956 13.5417 15.7082 12.3291 15.7082 10.8333C15.7082 9.33756 14.4956 8.125 12.9998 8.125C11.5041 8.125 10.2915 9.33756 10.2915 10.8333C10.2915 12.3291 11.5041 13.5417 12.9998 13.5417Z" fill="#9CA3AF"/>
</g>
</svg>
