<svg width="27" height="27" viewBox="0 0 27 27" fill="none" xmlns="http://www.w3.org/2000/svg">
<g id="Bold Duotone / Essentional, UI / Home Smile Angle">
<path id="Vector" opacity="0.5" d="M12.302 24.3334H14.6986C18.4323 24.3334 20.2992 24.3334 21.5722 23.2373C22.8452 22.1412 23.1092 20.3063 23.6373 16.6365L23.9392 14.5378C24.3503 11.6809 24.5558 10.2526 23.9703 9.03128C23.3849 7.80998 22.1386 7.06762 19.6462 5.58289L18.1459 4.68919C15.8826 3.3409 14.7508 2.66675 13.5003 2.66675C12.2498 2.66675 11.1181 3.3409 8.85472 4.68919L7.35448 5.58288C4.86203 7.06762 3.6158 7.80998 3.03031 9.03128C2.44481 10.2526 2.65034 11.6809 3.0614 14.5378L3.3634 16.6365C3.89143 20.3063 4.15545 22.1412 5.42844 23.2373C6.70142 24.3334 8.56831 24.3334 12.302 24.3334Z" fill="#0396A6"/>
<path id="Vector_2" d="M10.7339 17.18C10.3734 16.9129 9.86453 16.9885 9.59732 17.3489C9.3301 17.7095 9.40573 18.2183 9.76622 18.4856C10.8197 19.2664 12.108 19.7287 13.5 19.7287C14.8921 19.7287 16.1804 19.2664 17.2339 18.4856C17.5944 18.2183 17.67 17.7095 17.4028 17.3489C17.1356 16.9885 16.6267 16.9129 16.2662 17.18C15.4772 17.7649 14.5247 18.1037 13.5 18.1037C12.4753 18.1037 11.5229 17.7649 10.7339 17.18Z" fill="#0396A6"/>
</g>
</svg>
