<svg width="31" height="30" viewBox="0 0 31 30" fill="none" xmlns="http://www.w3.org/2000/svg">
<g id="Icons">
<path id="Vector" fill-rule="evenodd" clip-rule="evenodd" d="M3 8.29269C3 5.09347 5.59347 2.5 8.79269 2.5C11.9919 2.5 14.5854 5.09347 14.5854 8.29269C14.5854 11.4919 11.9919 14.0854 8.79269 14.0854C5.59347 14.0854 3 11.4919 3 8.29269Z" fill="#0396A6"/>
<path id="Vector_2" opacity="0.5" fill-rule="evenodd" clip-rule="evenodd" d="M16.415 21.7072C16.415 18.5081 19.0085 15.9146 22.2078 15.9146C25.4069 15.9146 28.0004 18.5081 28.0004 21.7072C28.0004 24.9064 25.4069 27.4999 22.2078 27.4999C19.0085 27.4999 16.415 24.9064 16.415 21.7072Z" fill="#0396A6"/>
<path id="Vector_3" d="M3 21.875C3 19.2234 3 17.8975 3.82376 17.0738C4.64752 16.25 5.97335 16.25 8.625 16.25C11.2767 16.25 12.6025 16.25 13.4262 17.0738C14.25 17.8975 14.25 19.2234 14.25 21.875C14.25 24.5266 14.25 25.8525 13.4262 26.6762C12.6025 27.5 11.2767 27.5 8.625 27.5C5.97335 27.5 4.64752 27.5 3.82376 26.6762C3 25.8525 3 24.5266 3 21.875Z" fill="#0396A6"/>
<path id="Vector_4" opacity="0.5" d="M16.75 8.125C16.75 5.47335 16.75 4.14752 17.5738 3.32376C18.3975 2.5 19.7234 2.5 22.375 2.5C25.0266 2.5 26.3525 2.5 27.1762 3.32376C28 4.14752 28 5.47335 28 8.125C28 10.7767 28 12.1025 27.1762 12.9262C26.3525 13.75 25.0266 13.75 22.375 13.75C19.7234 13.75 18.3975 13.75 17.5738 12.9262C16.75 12.1025 16.75 10.7767 16.75 8.125Z" fill="#0396A6"/>
</g>
</svg>
