<svg width="30" height="30" viewBox="0 0 30 30" fill="none" xmlns="http://www.w3.org/2000/svg">
<g id="Icons">
<path id="Vector" opacity="0.5" d="M13.5585 27.4178C7.33391 26.703 2.5 21.416 2.5 15C2.5 8.09644 8.09644 2.5 15 2.5C21.9035 2.5 27.5 8.09644 27.5 15C27.5 21.4456 23.3966 20.9156 19.8919 20.4629C17.8705 20.2017 16.0483 19.9664 15.3274 21.11C14.8342 21.892 15.3673 22.8672 16.021 23.521C16.8379 24.3379 16.8379 25.6621 16.021 26.479C15.3673 27.1328 14.477 27.5233 13.5585 27.4178Z" fill="#FB923C"/>
<path id="Vector_2" d="M13.8564 8.75C13.8564 9.78554 13.0169 10.625 11.9814 10.625C10.9459 10.625 10.1064 9.78554 10.1064 8.75C10.1064 7.71446 10.9459 6.875 11.9814 6.875C13.0169 6.875 13.8564 7.71446 13.8564 8.75Z" fill="#FB923C"/>
<path id="Vector_3" d="M8.125 16.2502C9.16054 16.2502 10 15.4109 10 14.3752C10 13.3397 9.16054 12.5002 8.125 12.5002C7.08946 12.5002 6.25 13.3397 6.25 14.3752C6.25 15.4109 7.08946 16.2502 8.125 16.2502Z" fill="#FB923C"/>
<path id="Vector_4" d="M21.875 16.2502C22.9105 16.2502 23.75 15.4109 23.75 14.3752C23.75 13.3397 22.9105 12.5002 21.875 12.5002C20.8395 12.5002 20 13.3397 20 14.3752C20 15.4109 20.8395 16.2502 21.875 16.2502Z" fill="#FB923C"/>
<path id="Vector_5" d="M18.125 10.6253C19.1605 10.6253 20 9.78583 20 8.75029C20 7.71475 19.1605 6.87529 18.125 6.87529C17.0895 6.87529 16.25 7.71475 16.25 8.75029C16.25 9.78583 17.0895 10.6253 18.125 10.6253Z" fill="#FB923C"/>
</g>
</svg>
