<svg width="30" height="30" viewBox="0 0 30 30" fill="none" xmlns="http://www.w3.org/2000/svg">
<g id="Icons">
<path id="Vector" opacity="0.5" d="M15 20.0847L10.2857 24.9659C9.61053 25.665 9.27296 26.0145 8.98708 26.1355C8.33565 26.4111 7.61302 26.1752 7.27035 25.5751C7.11996 25.3117 7.0731 24.8367 6.97937 23.8867C6.92646 23.3504 6.9 23.0821 6.81968 22.8575C6.63988 22.3546 6.26207 21.9635 5.77637 21.7772C5.55943 21.6941 5.30041 21.6667 4.7824 21.6119C3.86487 21.5149 3.40607 21.4664 3.15172 21.3106C2.57215 20.9559 2.34435 20.2076 2.61053 19.5331C2.72735 19.2371 3.06492 18.8876 3.74007 18.1886L6.81968 14.9999L8.36745 13.4521L15 20.0847L21.6325 13.4521L23.1802 14.9999L26.2599 18.1886C26.9351 18.8876 27.2726 19.2371 27.3895 19.5331C27.6556 20.2076 27.4279 20.9559 26.8482 21.3106C26.5939 21.4664 26.1351 21.5149 25.2176 21.6119C24.6996 21.6667 24.4406 21.6941 24.2236 21.7772C23.7379 21.9635 23.3601 22.3546 23.1802 22.8575C23.1 23.0821 23.0735 23.3504 23.0206 23.8867C22.9269 24.8367 22.88 25.3117 22.7296 25.5751C22.387 26.1752 21.6644 26.4111 21.0129 26.1355C20.727 26.0145 20.3895 25.665 19.7144 24.9659L15 20.0847Z" fill="#FFB703"/>
<path id="Vector_2" fill-rule="evenodd" clip-rule="evenodd" d="M15 20C19.8325 20 23.75 16.0825 23.75 11.25C23.75 6.41751 19.8325 2.5 15 2.5C10.1675 2.5 6.25 6.41751 6.25 11.25C6.25 16.0825 10.1675 20 15 20ZM15 7.5C14.6449 7.5 14.4074 7.92605 13.9324 8.77814L13.8095 8.99859C13.6746 9.24073 13.6071 9.3618 13.5019 9.44168C13.3966 9.52156 13.2656 9.55121 13.0035 9.61051L12.7649 9.66451C11.8424 9.87321 11.3813 9.97756 11.2715 10.3304C11.1618 10.6832 11.4762 11.0509 12.105 11.7862L12.2677 11.9765C12.4464 12.1854 12.5357 12.2899 12.576 12.4191C12.6161 12.5484 12.6026 12.6877 12.5756 12.9666L12.551 13.2204C12.456 14.2015 12.4084 14.692 12.6956 14.9101C12.983 15.1281 13.4148 14.9294 14.2784 14.5317L14.5018 14.4289C14.7473 14.3159 14.8699 14.2594 15 14.2594C15.1301 14.2594 15.2527 14.3159 15.4982 14.4289L15.7216 14.5317C16.5852 14.9294 17.017 15.1281 17.3044 14.9101C17.5916 14.692 17.544 14.2015 17.449 13.2204L17.4244 12.9666C17.3974 12.6877 17.3839 12.5484 17.424 12.4191C17.4643 12.2899 17.5536 12.1854 17.7322 11.9765L17.895 11.7862C18.5238 11.0509 18.8382 10.6832 18.7285 10.3304C18.6187 9.97756 18.1575 9.87321 17.2351 9.66451L16.9965 9.61051C16.7344 9.55121 16.6034 9.52156 16.4981 9.44168C16.3929 9.3618 16.3254 9.24073 16.1905 8.99859L16.0676 8.77814C15.5926 7.92605 15.3551 7.5 15 7.5Z" fill="#FFB703"/>
</g>
</svg>
