<svg width="20" height="20" viewBox="0 0 20 20" fill="none" xmlns="http://www.w3.org/2000/svg">
<g id="Icons/Linear/Time/Calendar">
<path id="Vector" d="M1.66699 9.99992C1.66699 6.85722 1.66699 5.28588 2.6433 4.30956C3.61962 3.33325 5.19096 3.33325 8.33366 3.33325H11.667C14.8097 3.33325 16.3811 3.33325 17.3573 4.30956C18.3337 5.28588 18.3337 6.85722 18.3337 9.99992V11.6666C18.3337 14.8093 18.3337 16.3807 17.3573 17.3569C16.3811 18.3333 14.8097 18.3333 11.667 18.3333H8.33366C5.19096 18.3333 3.61962 18.3333 2.6433 17.3569C1.66699 16.3807 1.66699 14.8093 1.66699 11.6666V9.99992Z" stroke="#0396A6" stroke-width="1.5"/>
<path id="Vector_2" d="M5.83301 3.33325V2.08325" stroke="#0396A6" stroke-width="1.5" stroke-linecap="round"/>
<path id="Vector_3" d="M14.167 3.33325V2.08325" stroke="#0396A6" stroke-width="1.5" stroke-linecap="round"/>
<path id="Vector_4" d="M2.08301 7.5H17.9163" stroke="#0396A6" stroke-width="1.5" stroke-linecap="round"/>
<path id="Vector_5" d="M14.9997 14.1666C14.9997 14.6268 14.6266 14.9999 14.1663 14.9999C13.7061 14.9999 13.333 14.6268 13.333 14.1666C13.333 13.7063 13.7061 13.3333 14.1663 13.3333C14.6266 13.3333 14.9997 13.7063 14.9997 14.1666Z" fill="#0396A6"/>
<path id="Vector_6" d="M14.9997 10.8333C14.9997 11.2936 14.6266 11.6667 14.1663 11.6667C13.7061 11.6667 13.333 11.2936 13.333 10.8333C13.333 10.3731 13.7061 10 14.1663 10C14.6266 10 14.9997 10.3731 14.9997 10.8333Z" fill="#0396A6"/>
<path id="Vector_7" d="M10.8337 14.1666C10.8337 14.6268 10.4606 14.9999 10.0003 14.9999C9.54008 14.9999 9.16699 14.6268 9.16699 14.1666C9.16699 13.7063 9.54008 13.3333 10.0003 13.3333C10.4606 13.3333 10.8337 13.7063 10.8337 14.1666Z" fill="#0396A6"/>
<path id="Vector_8" d="M10.8337 10.8333C10.8337 11.2936 10.4606 11.6667 10.0003 11.6667C9.54008 11.6667 9.16699 11.2936 9.16699 10.8333C9.16699 10.3731 9.54008 10 10.0003 10C10.4606 10 10.8337 10.3731 10.8337 10.8333Z" fill="#0396A6"/>
<path id="Vector_9" d="M6.66667 14.1666C6.66667 14.6268 6.29357 14.9999 5.83333 14.9999C5.3731 14.9999 5 14.6268 5 14.1666C5 13.7063 5.3731 13.3333 5.83333 13.3333C6.29357 13.3333 6.66667 13.7063 6.66667 14.1666Z" fill="#0396A6"/>
<path id="Vector_10" d="M6.66667 10.8333C6.66667 11.2936 6.29357 11.6667 5.83333 11.6667C5.3731 11.6667 5 11.2936 5 10.8333C5 10.3731 5.3731 10 5.83333 10C6.29357 10 6.66667 10.3731 6.66667 10.8333Z" fill="#0396A6"/>
</g>
</svg>
