<svg width="31" height="30" viewBox="0 0 31 30" fill="none" xmlns="http://www.w3.org/2000/svg">
<g id="Icons">
<path id="Vector" d="M18.2715 4.37456C16.4952 3.54181 14.5046 3.54181 12.7284 4.37456L7.36173 6.89058C8.33917 6.99604 9.23277 7.61175 9.6476 8.57971C10.2595 10.0074 9.59812 11.6608 8.1704 12.2727L6.82582 12.849C6.15767 13.1353 5.7785 13.3008 5.52252 13.432C5.52112 13.4524 5.51979 13.4735 5.51855 13.4953L12.7285 16.8754C14.5047 17.7081 16.4954 17.7081 18.2716 16.8754L26.6355 12.9543C28.4549 12.1013 28.4549 9.14874 26.6355 8.2958L18.2715 4.37456Z" fill="#00B4D8"/>
<path id="Vector_2" d="M7.4318 10.5494C7.9077 10.3455 8.12816 9.79434 7.9242 9.31844C7.72025 8.84254 7.16911 8.62209 6.6932 8.82604L5.30398 9.42142C4.60714 9.72004 4.0166 9.97311 3.55318 10.2338C3.06006 10.5112 2.63564 10.8368 2.31774 11.3189C1.99983 11.801 1.86776 12.3194 1.80704 12.8819C1.74996 13.4105 1.74998 14.053 1.75 14.8111V18.4377C1.75 18.9555 2.16974 19.3752 2.6875 19.3752C3.20528 19.3752 3.625 18.9555 3.625 18.4377V14.8598C3.625 14.04 3.62626 13.4994 3.6712 13.0831C3.71369 12.6896 3.78808 12.4952 3.88306 12.3511C3.97805 12.207 4.12753 12.0621 4.4725 11.868C4.83731 11.6627 5.33375 11.4486 6.0872 11.1257L7.4318 10.5494Z" fill="#00B4D8"/>
<path id="Vector_3" opacity="0.5" d="M6.75 14.0726L12.7283 16.8754C14.5045 17.7081 16.4951 17.7081 18.2714 16.8754L24.25 14.0725V20.7815C24.25 22.0415 23.6206 23.2213 22.5184 23.8316C20.6829 24.8481 17.745 26.2498 15.5 26.2498C13.255 26.2498 10.3171 24.8481 8.48166 23.8316C7.37938 23.2213 6.75 22.0415 6.75 20.7815V14.0726Z" fill="#00B4D8"/>
</g>
</svg>
