<svg width="29" height="28" viewBox="0 0 29 28" fill="none" xmlns="http://www.w3.org/2000/svg">
<g id="Icons">
<path id="Vector" d="M15.3753 14.5927L25.292 10.6261V17.2211C24.7027 16.8438 24.002 16.6251 23.2503 16.6251C21.1563 16.6251 19.4587 18.3227 19.4587 20.4167C19.4587 22.5108 21.1563 24.2084 23.2503 24.2084C25.3444 24.2084 27.042 22.5108 27.042 20.4167V9.27071C27.042 7.9374 27.042 6.8192 26.9482 5.92828C26.9349 5.80237 26.9193 5.67719 26.902 5.56038C26.8116 4.95172 26.6519 4.38391 26.3436 3.90976C26.1895 3.67268 25.9982 3.45903 25.7599 3.27537C25.7153 3.24094 25.6688 3.20756 25.6209 3.17528L25.6112 3.16884C24.7861 2.61971 23.8585 2.65898 22.903 2.90248C21.9789 3.13796 20.8332 3.61751 19.4283 4.20555L16.9853 5.22809C16.3267 5.50368 15.7688 5.73718 15.331 5.97901C14.865 6.23632 14.4637 6.53981 14.1627 6.99204C13.8618 7.44429 13.7367 7.93166 13.6793 8.46079C13.6253 8.95811 13.6253 9.56291 13.6253 10.2768V19.5545C13.0359 19.1772 12.3353 18.9584 11.5837 18.9584C9.48957 18.9584 7.79199 20.656 7.79199 22.7501C7.79199 24.8441 9.48957 26.5417 11.5837 26.5417C13.6777 26.5417 15.3753 24.8441 15.3753 22.7501V14.5927Z" fill="#C084FC"/>
<path id="Vector_2" opacity="0.5" d="M9.54134 2.33325C9.54134 1.85001 9.14959 1.45825 8.66634 1.45825C8.1831 1.45825 7.79134 1.85001 7.79134 2.33325V9.05431C7.202 8.677 6.50138 8.45825 5.74967 8.45825C3.65559 8.45825 1.95801 10.1558 1.95801 12.2499C1.95801 14.344 3.65559 16.0416 5.74967 16.0416C7.84376 16.0416 9.54134 14.344 9.54134 12.2499V5.8385C10.3563 6.42724 11.3258 6.70825 12.1663 6.70825C12.6496 6.70825 13.0413 6.3165 13.0413 5.83325C13.0413 5.35001 12.6496 4.95825 12.1663 4.95825C11.6363 4.95825 10.9604 4.75279 10.4299 4.31468C9.92448 3.8973 9.54134 3.26408 9.54134 2.33325Z" fill="#C084FC"/>
</g>
</svg>
