<svg width="26" height="26" viewBox="0 0 26 26" fill="none" xmlns="http://www.w3.org/2000/svg">
<g id="Property 1=Bold Duotone, Property 2=Medicine, Property 3=Heart Pulse 2">
<path id="Vector" opacity="0.5" d="M2.54127 12.1876C2.30147 11.4688 2.1665 10.7469 2.1665 10.0321C2.1665 3.62862 8.12501 0.717857 12.9998 5.957C17.8746 0.717857 23.8332 3.62842 23.8332 10.0321C23.8332 10.7469 23.6982 11.4688 23.4584 12.1876H20.1889L20.0676 12.1875C19.4764 12.1865 18.9513 12.1857 18.4736 12.3984C17.9957 12.6112 17.6451 13.0022 17.2501 13.4424L17.169 13.5328L16.054 14.7717C15.9426 14.8954 15.7492 14.8918 15.6433 14.7633L11.7961 10.1001C11.6449 9.91674 11.4832 9.72054 11.325 9.57493C11.1407 9.40537 10.8684 9.21463 10.4875 9.19176C10.1067 9.16889 9.81348 9.32565 9.61025 9.47194C9.43574 9.59758 9.25168 9.773 9.07964 9.93696L7.42253 11.5152C6.91145 12.0019 6.80481 12.0849 6.69326 12.1294C6.58171 12.1741 6.4473 12.1876 5.7415 12.1876H2.54127Z" fill="#9CA3AF"/>
<path id="Vector_2" d="M23.4581 12.1874H20.1887L20.0674 12.1872C19.4761 12.1863 18.9511 12.1854 18.4733 12.3982C17.9955 12.611 17.6447 13.002 17.2499 13.4422L17.1687 13.5325L16.0538 14.7715C15.9424 14.8952 15.749 14.8916 15.6431 14.7631L11.7958 10.0999C11.6447 9.91652 11.483 9.72032 11.3247 9.57471C11.1405 9.40514 10.8681 9.21441 10.4873 9.19154C10.1065 9.16866 9.81324 9.32543 9.61 9.47172C9.43549 9.59734 9.25143 9.77277 9.0794 9.93673L7.42229 11.515C6.9112 12.0017 6.80456 12.0846 6.69301 12.1292C6.58146 12.1739 6.44704 12.1874 5.74126 12.1874H2.54102C3.66331 15.551 7.08181 18.8431 9.70813 20.9847C11.1511 22.1614 11.8726 22.7498 12.9996 22.7498C14.1266 22.7498 14.8481 22.1614 16.291 20.9847C18.9173 18.8431 22.3359 15.551 23.4581 12.1874Z" fill="#9CA3AF"/>
</g>
</svg>
