<svg width="29" height="29" viewBox="0 0 29 29" fill="none" xmlns="http://www.w3.org/2000/svg">
<path d="M11.4736 17.0059C13.4034 17.0059 14.9677 18.5702 14.9677 20.5C14.9677 22.4298 13.4034 23.9941 11.4736 23.9941C9.54387 23.9941 7.97949 22.4298 7.97949 20.5C7.97949 18.5702 9.54387 17.0059 11.4736 17.0059Z" fill="#0396A6"/>
<path d="M17.2969 5.35889C15.3671 5.35889 13.8027 6.92326 13.8027 8.853C13.8027 10.7827 15.3671 12.3471 17.2969 12.3471C19.2267 12.3471 20.791 10.7827 20.791 8.853C20.791 6.92326 19.2267 5.35889 17.2969 5.35889Z" fill="#0396A6"/>
<path d="M10.8917 7.93115C11.3741 7.93115 11.7652 8.32225 11.7652 8.80468C11.7652 9.28711 11.3741 9.67821 10.8917 9.67821H2.73876C2.25633 9.67821 1.86523 9.28711 1.86523 8.80468C1.86523 8.32225 2.25633 7.93115 2.73876 7.93115H10.8917Z" fill="#0396A6"/>
<path d="M17.8794 19.5781C17.397 19.5781 17.0059 19.9692 17.0059 20.4517C17.0059 20.9341 17.397 21.3252 17.8794 21.3252H26.0323C26.5148 21.3252 26.9059 20.9341 26.9059 20.4517C26.9059 19.9692 26.5148 19.5781 26.0323 19.5781H17.8794Z" fill="#0396A6"/>
<path d="M1.86523 20.4517C1.86523 19.9692 2.25633 19.5781 2.73876 19.5781H5.06818C5.55061 19.5781 5.9417 19.9692 5.9417 20.4517C5.9417 20.9341 5.55061 21.3252 5.06818 21.3252H2.73876C2.25633 21.3252 1.86523 20.9341 1.86523 20.4517Z" fill="#0396A6"/>
<path d="M26.033 7.93115C26.5154 7.93115 26.9065 8.32225 26.9065 8.80468C26.9065 9.28711 26.5154 9.67821 26.033 9.67821H23.7036C23.2212 9.67821 22.8301 9.28711 22.8301 8.80468C22.8301 8.32225 23.2212 7.93115 23.7036 7.93115H26.033Z" fill="#0396A6"/>
</svg>
