<svg width="28" height="28" viewBox="0 0 28 28" fill="none" xmlns="http://www.w3.org/2000/svg">
<g id="Linear / Map &#38; Location / GPS">
<path id="Vector" d="M23.3332 14C23.3332 19.1547 19.1545 23.3334 13.9998 23.3334C8.84518 23.3334 4.6665 19.1547 4.6665 14C4.6665 8.84536 8.84518 4.66669 13.9998 4.66669C19.1545 4.66669 23.3332 8.84536 23.3332 14Z" stroke="#EFF8F9" stroke-width="1.5"/>
<path id="Vector_2" d="M17.5 14C17.5 15.933 15.933 17.5 14 17.5C12.0669 17.5 10.5 15.933 10.5 14C10.5 12.0669 12.0669 10.5 14 10.5C15.933 10.5 17.5 12.0669 17.5 14Z" stroke="#EFF8F9" stroke-width="1.5"/>
<path id="Vector_3" d="M2.3335 14H4.66683" stroke="#EFF8F9" stroke-width="1.5" stroke-linecap="round"/>
<path id="Vector_4" d="M23.3335 14H25.6668" stroke="#EFF8F9" stroke-width="1.5" stroke-linecap="round"/>
<path id="Vector_5" d="M14 4.66665V2.33331" stroke="#EFF8F9" stroke-width="1.5" stroke-linecap="round"/>
<path id="Vector_6" d="M14 25.6666V23.3333" stroke="#EFF8F9" stroke-width="1.5" stroke-linecap="round"/>
</g>
</svg>
