<svg width="30" height="30" viewBox="0 0 30 30" fill="none" xmlns="http://www.w3.org/2000/svg">
<g id="Icons">
<path id="Vector" d="M15.065 1.5625H14.935C13.8119 1.56246 12.8754 1.56244 12.1319 1.66239C11.3472 1.7679 10.6387 1.99999 10.0693 2.56933C9.49999 3.13866 9.2679 3.84716 9.16239 4.6319C9.06244 5.37538 9.06246 6.31188 9.0625 7.43496V7.53215C9.63379 7.51345 10.2567 7.50564 10.9375 7.50236V7.5C10.9375 6.29499 10.9395 5.48554 11.0207 4.88175C11.0982 4.30491 11.2323 4.05805 11.3952 3.89515C11.5581 3.73225 11.8049 3.59823 12.3818 3.52068C12.9855 3.4395 13.795 3.4375 15 3.4375C16.205 3.4375 17.0145 3.4395 17.6183 3.52068C18.1951 3.59823 18.442 3.73225 18.6049 3.89515C18.7678 4.05805 18.9018 4.30491 18.9794 4.88175C19.0605 5.48554 19.0625 6.29499 19.0625 7.5V7.50236C19.7434 7.50564 20.3663 7.51345 20.9375 7.53215V7.43501C20.9375 6.31193 20.9376 5.37538 20.8376 4.6319C20.7321 3.84716 20.5 3.13866 19.9306 2.56933C19.3614 1.99999 18.6529 1.7679 17.8681 1.66239C17.1246 1.56244 16.1881 1.56246 15.065 1.5625Z" fill="#1DDF61"/>
<path id="Vector_2" opacity="0.5" fill-rule="evenodd" clip-rule="evenodd" d="M2.5 17.5C2.5 12.786 2.5 10.4289 3.96446 8.96446C5.42894 7.5 7.78595 7.5 12.5 7.5H17.5C22.214 7.5 24.5711 7.5 26.0355 8.96446C27.5 10.4289 27.5 12.786 27.5 17.5C27.5 22.214 27.5 24.5711 26.0355 26.0355C24.5711 27.5 22.214 27.5 17.5 27.5H12.5C7.78595 27.5 5.42893 27.5 3.96446 26.0355C2.5 24.5711 2.5 22.214 2.5 17.5ZM15.9375 15.625C15.9375 15.1073 15.5177 14.6875 15 14.6875C14.4823 14.6875 14.0625 15.1073 14.0625 15.625V16.5625H13.125C12.6073 16.5625 12.1875 16.9823 12.1875 17.5C12.1875 18.0177 12.6073 18.4375 13.125 18.4375H14.0625V19.375C14.0625 19.8927 14.4823 20.3125 15 20.3125C15.5177 20.3125 15.9375 19.8927 15.9375 19.375V18.4375H16.875C17.3927 18.4375 17.8125 18.0177 17.8125 17.5C17.8125 16.9823 17.3927 16.5625 16.875 16.5625H15.9375V15.625Z" fill="#1DDF61"/>
<path id="Vector_3" fill-rule="evenodd" clip-rule="evenodd" d="M15 22.5C17.7614 22.5 20 20.2614 20 17.5C20 14.7386 17.7614 12.5 15 12.5C12.2386 12.5 10 14.7386 10 17.5C10 20.2614 12.2386 22.5 15 22.5ZM15.9375 15.625C15.9375 15.1072 15.5177 14.6875 15 14.6875C14.4823 14.6875 14.0625 15.1072 14.0625 15.625V16.5625H13.125C12.6072 16.5625 12.1875 16.9823 12.1875 17.5C12.1875 18.0177 12.6072 18.4375 13.125 18.4375H14.0625V19.375C14.0625 19.8927 14.4823 20.3125 15 20.3125C15.5177 20.3125 15.9375 19.8927 15.9375 19.375V18.4375H16.875C17.3927 18.4375 17.8125 18.0177 17.8125 17.5C17.8125 16.9823 17.3927 16.5625 16.875 16.5625H15.9375V15.625Z" fill="#1DDF61"/>
</g>
</svg>
