<svg width="31" height="30" viewBox="0 0 31 30" fill="none" xmlns="http://www.w3.org/2000/svg">
<g id="Bold Duotone / School / Case">
<path id="Vector" opacity="0.5" d="M13.7016 2.8125C13.5597 2.81248 13.4494 2.81247 13.3449 2.81879C12.0193 2.89908 10.8586 3.73569 10.3632 4.96782C10.3233 5.06712 10.2878 5.17329 10.2404 5.31564C10.1362 5.59605 9.89713 5.91499 9.56232 6.16983C9.52504 6.19819 9.48762 6.22499 9.4502 6.25022L11.8777 6.25C11.9138 6.17555 11.947 6.09985 11.9772 6.02303L11.9791 6.01865L11.9844 6.00628L11.9905 5.99113L11.9962 5.97617L12.0007 5.96373L12.003 5.95747L12.0083 5.94216L12.013 5.92805L12.0157 5.92021L12.0191 5.90979L12.0219 5.90099L12.0241 5.89378C12.0726 5.7484 12.0885 5.70308 12.1029 5.66719C12.3281 5.10714 12.8557 4.72685 13.4582 4.69037C13.4985 4.68793 13.548 4.6875 13.7271 4.6875H17.2744C17.4536 4.6875 17.503 4.68793 17.5434 4.69037C18.1459 4.72685 18.6735 5.10714 18.8986 5.66719C18.9129 5.70255 18.9279 5.74623 18.9771 5.89374L18.9794 5.90089L18.9821 5.90973L18.9856 5.92018L18.9881 5.92799L18.993 5.94208L18.9982 5.95735L19.0005 5.96362L19.005 5.97602L19.0107 5.99089L19.0167 6.00589L19.0219 6.01812L19.0239 6.02264C19.0541 6.0996 19.0874 6.17543 19.1235 6.25L21.5509 6.25022C21.5135 6.225 21.4761 6.19823 21.4389 6.16987C21.1041 5.91507 20.8651 5.59615 20.7609 5.31568L20.7571 5.30434C20.7122 5.16977 20.6774 5.06493 20.6382 4.96783C20.143 3.73569 18.9822 2.89908 17.6566 2.81879C17.5522 2.81247 17.4417 2.81248 17.2999 2.8125H13.7016Z" fill="#023E8A"/>
<path id="Vector_2" fill-rule="evenodd" clip-rule="evenodd" d="M21.9904 6.25H9.00956C6.90034 6.25 5.84572 6.25 5.04085 6.66214C4.34052 7.02074 3.77074 7.59052 3.41214 8.29085C3 9.09572 3 10.1503 3 12.2596C3 12.7957 3 13.0639 3.0917 13.2899C3.17179 13.4872 3.30099 13.661 3.46704 13.7944C3.65718 13.9471 3.91398 14.0243 4.42758 14.1782L11.125 16.1875V17.7034C11.125 18.6604 11.6992 19.5426 12.6085 19.912L13.3086 20.1965C14.7149 20.7679 16.2851 20.7679 17.6914 20.1965L18.3915 19.912C19.3008 19.5426 19.875 18.6604 19.875 17.7034V16.1875L26.5724 14.1782C27.086 14.0243 27.3429 13.9471 27.533 13.7944C27.699 13.661 27.8282 13.4872 27.9082 13.2899C28 13.0639 28 12.7957 28 12.2596C28 10.1503 28 9.09572 27.5879 8.29085C27.2292 7.59052 26.6595 7.02074 25.9591 6.66214C25.1542 6.25 24.0996 6.25 21.9904 6.25ZM17.5 15H13.5C13.2239 15 13 15.2274 13 15.5079V17.7034C13 17.911 13.1245 18.0977 13.3142 18.175L14.0145 18.4594C14.9681 18.8469 16.0319 18.8469 16.9856 18.4594L17.6858 18.175C17.8755 18.0977 18 17.911 18 17.7034V15.5079C18 15.2274 17.7761 15 17.5 15Z" fill="#023E8A"/>
<path id="Vector_3" opacity="0.5" d="M4.25 14.1248C4.30557 14.1416 4.36465 14.1594 4.42758 14.1783L11.125 16.1874V17.7034C11.125 18.6604 11.6992 19.5425 12.6085 19.912L13.3086 20.1964C14.7149 20.7678 16.2851 20.7678 17.6914 20.1964L18.3915 19.912C19.3007 19.5425 19.875 18.6604 19.875 17.7034V16.1874L26.5724 14.1783C26.6354 14.1594 26.6944 14.1416 26.75 14.1248V15.3749C26.7489 19.969 26.7064 24.6099 25.1025 26.0355C23.4549 27.5 20.8032 27.5 15.5 27.5C10.1967 27.5 7.54501 27.5 5.8975 26.0355C4.29361 24.6099 4.25112 19.969 4.25 15.3749V14.1248Z" fill="#023E8A"/>
</g>
</svg>
