<svg width="26" height="26" viewBox="0 0 26 26" fill="none" xmlns="http://www.w3.org/2000/svg">
<path fill-rule="evenodd" clip-rule="evenodd" d="M12.9997 2.16675C8.2132 2.16675 4.33301 6.50288 4.33301 11.3751C4.33301 16.2091 7.0991 21.4635 11.4149 23.4807C12.4208 23.951 13.5785 23.951 14.5845 23.4807C18.9003 21.4635 21.6663 16.2091 21.6663 11.3751C21.6663 6.50288 17.7862 2.16675 12.9997 2.16675ZM12.9997 13.0001C14.1963 13.0001 15.1663 12.0301 15.1663 10.8334C15.1663 9.6368 14.1963 8.66675 12.9997 8.66675C11.803 8.66675 10.833 9.6368 10.833 10.8334C10.833 12.0301 11.803 13.0001 12.9997 13.0001Z" fill="#F3F4F6"/>
</svg>
