<svg width="26" height="26" viewBox="0 0 26 26" fill="none" xmlns="http://www.w3.org/2000/svg">
<path d="M9.04785 21.9287C9.95903 23.087 11.3905 23.8334 13.0001 23.8334C14.6097 23.8334 16.0411 23.087 16.9523 21.9287C14.3287 22.2843 11.6715 22.2843 9.04785 21.9287Z" fill="#D2D5DA"/>
<path fill-rule="evenodd" clip-rule="evenodd" d="M20.3115 10.5129V9.75008C20.3115 5.56193 17.038 2.16675 13 2.16675C8.96194 2.16675 5.68844 5.56193 5.68844 9.75008V10.5129C5.68844 11.4283 5.4272 12.3232 4.93762 13.0848L3.73789 14.9514C2.64206 16.6562 3.47864 18.9735 5.38456 19.5126C10.3705 20.9229 15.6296 20.9229 20.6154 19.5126C22.5214 18.9735 23.358 16.6562 22.2621 14.9514L21.0624 13.0848C20.5728 12.3232 20.3115 11.4283 20.3115 10.5129ZM13 5.68758C13.4487 5.68758 13.8125 6.05135 13.8125 6.50008V10.8334C13.8125 11.2821 13.4487 11.6459 13 11.6459C12.5513 11.6459 12.1875 11.2821 12.1875 10.8334V6.50008C12.1875 6.05135 12.5513 5.68758 13 5.68758Z" fill="#D2D5DA"/>
</svg>
