<svg width="26" height="26" viewBox="0 0 26 26" fill="none" xmlns="http://www.w3.org/2000/svg">
<g id="Property 1=Bold Duotone, Property 2=Money, Property 3=Ticket">
<path id="Vector" fill-rule="evenodd" clip-rule="evenodd" d="M15.1813 18.4167L15.1751 20.5865C15.1735 21.0959 15.1728 21.3505 15.0139 21.5086C14.8549 21.6667 14.5996 21.6667 14.089 21.6667H10.8278C6.73208 21.6667 4.68424 21.6667 3.41188 20.3974C2.53582 19.5236 2.26295 18.283 2.17796 16.2614C2.16111 15.8606 2.15268 15.66 2.22754 15.5263C2.30241 15.3926 2.60128 15.2257 3.19901 14.8918C3.86285 14.5211 4.31158 13.8128 4.31158 13C4.31158 12.1872 3.86285 11.4789 3.19901 11.1082C2.60128 10.7743 2.30241 10.6074 2.22754 10.4737C2.15268 10.34 2.16111 10.1395 2.17796 9.7386C2.26295 7.71702 2.53582 6.47643 3.41188 5.60254C4.68424 4.33334 6.73209 4.33334 10.8278 4.33334H14.6305C14.9297 4.33334 15.1726 4.57491 15.1734 4.87344L15.1813 7.58334C15.1813 8.18165 15.6675 8.66668 16.2674 8.66668V10.8333C15.6675 10.8333 15.1813 11.3184 15.1813 11.9167V14.0833C15.1813 14.6817 15.6675 15.1667 16.2674 15.1667V17.3333C15.6675 17.3333 15.1813 17.8184 15.1813 18.4167Z" fill="#9CA3AF"/>
<path id="Vector_2" opacity="0.5" d="M16.2681 17.3331C16.8679 17.3331 17.3541 17.8181 17.3541 18.4164V20.5577C17.3541 21.0793 17.3541 21.3401 17.5214 21.5C17.6886 21.6601 17.9445 21.6492 18.4564 21.6276C20.4745 21.5421 21.7145 21.2691 22.5884 20.3972C23.4645 19.5234 23.7374 18.2828 23.8224 16.2613C23.8393 15.8603 23.8477 15.6598 23.7729 15.5261C23.698 15.3923 23.3991 15.2255 22.8013 14.8917C22.1376 14.521 21.6887 13.8126 21.6887 12.9998C21.6887 12.187 22.1376 11.4787 22.8013 11.108C23.3991 10.7741 23.698 10.6072 23.7729 10.4735C23.8477 10.3398 23.8393 10.1393 23.8224 9.73839C23.7374 7.7168 23.4645 6.47621 22.5884 5.60233C21.6376 4.65384 20.2537 4.41418 17.9056 4.35361C17.6027 4.3458 17.3541 4.59008 17.3541 4.89233V7.58313C17.3541 8.18145 16.8679 8.66646 16.2681 8.66646V10.8331C16.8679 10.8331 17.3541 11.3181 17.3541 11.9164V14.0831C17.3541 14.6814 16.8679 15.1664 16.2681 15.1664V17.3331Z" fill="#9CA3AF"/>
</g>
</svg>
